<?xml version="1.0" encoding="utf-8" ?>
<svg baseProfile="full" height="480.0" version="1.1" width="2304.0" xmlns="http://www.w3.org/2000/svg" xmlns:ev="http://www.w3.org/2001/xml-events" xmlns:xlink="http://www.w3.org/1999/xlink"><defs /><line stroke="#00FF00" stroke-width="0.1" x1="0.0" x2="0.0" y1="0" y2="480.0" /><line stroke="#00FF00" stroke-width="0.1" x1="96.0" x2="96.0" y1="0" y2="480.0" /><line stroke="#00FF00" stroke-width="0.1" x1="192.0" x2="192.0" y1="0" y2="480.0" /><line stroke="#00FF00" stroke-width="0.1" x1="288.0" x2="288.0" y1="0" y2="480.0" /><line stroke="#00FF00" stroke-width="0.1" x1="384.0" x2="384.0" y1="0" y2="480.0" /><line stroke="#00FF00" stroke-width="0.1" x1="480.0" x2="480.0" y1="0" y2="480.0" /><line stroke="#00FF00" stroke-width="0.1" x1="576.0" x2="576.0" y1="0" y2="480.0" /><line stroke="#00FF00" stroke-width="0.1" x1="672.0" x2="672.0" y1="0" y2="480.0" /><line stroke="#00FF00" stroke-width="0.1" x1="768.0" x2="768.0" y1="0" y2="480.0" /><line stroke="#00FF00" stroke-width="0.1" x1="864.0" x2="864.0" y1="0" y2="480.0" /><line stroke="#00FF00" stroke-width="0.1" x1="960.0" x2="960.0" y1="0" y2="480.0" /><line stroke="#00FF00" stroke-width="0.1" x1="1056.0" x2="1056.0" y1="0" y2="480.0" /><line stroke="#00FF00" stroke-width="0.1" x1="1152.0" x2="1152.0" y1="0" y2="480.0" /><line stroke="#00FF00" stroke-width="0.1" x1="1248.0" x2="1248.0" y1="0" y2="480.0" /><line stroke="#00FF00" stroke-width="0.1" x1="1344.0" x2="1344.0" y1="0" y2="480.0" /><line stroke="#00FF00" stroke-width="0.1" x1="1440.0" x2="1440.0" y1="0" y2="480.0" /><line stroke="#00FF00" stroke-width="0.1" x1="1536.0" x2="1536.0" y1="0" y2="480.0" /><line stroke="#00FF00" stroke-width="0.1" x1="1632.0" x2="1632.0" y1="0" y2="480.0" /><line stroke="#00FF00" stroke-width="0.1" x1="1728.0" x2="1728.0" y1="0" y2="480.0" /><line stroke="#00FF00" stroke-width="0.1" x1="1824.0" x2="1824.0" y1="0" y2="480.0" /><line stroke="#00FF00" stroke-width="0.1" x1="1920.0" x2="1920.0" y1="0" y2="480.0" /><line stroke="#00FF00" stroke-width="0.1" x1="2016.0" x2="2016.0" y1="0" y2="480.0" /><line stroke="#00FF00" stroke-width="0.1" x1="2112.0" x2="2112.0" y1="0" y2="480.0" /><line stroke="#00FF00" stroke-width="0.1" x1="2208.0" x2="2208.0" y1="0" y2="480.0" /><line stroke="#00FF00" stroke-width="0.1" x1="2304.0" x2="2304.0" y1="0" y2="480.0" /><line stroke="#00FF00" stroke-width="0.1" x1="0" x2="2304.0" y1="0.0" y2="0.0" /><line stroke="#00FF00" stroke-width="0.1" x1="0" x2="2304.0" y1="96.0" y2="96.0" /><line stroke="#00FF00" stroke-width="0.1" x1="0" x2="2304.0" y1="192.0" y2="192.0" /><line stroke="#00FF00" stroke-width="0.1" x1="0" x2="2304.0" y1="288.0" y2="288.0" /><line stroke="#00FF00" stroke-width="0.1" x1="0" x2="2304.0" y1="384.0" y2="384.0" /><line stroke="#00FF00" stroke-width="0.1" x1="0" x2="2304.0" y1="480.0" y2="480.0" /></svg>